<svg width="918" height="918" viewBox="0 0 918 918" fill="none" xmlns="http://www.w3.org/2000/svg">
<path id="blog" d="M367.333 92.3332H871.5C883.656 92.3332 895.314 87.5043 903.909 78.9089C912.505 70.3135 917.333 58.6556 917.333 46.4998C917.333 34.3441 912.505 22.6862 903.909 14.0908C895.314 5.49536 883.656 0.666504 871.5 0.666504H367.333C355.178 0.666504 343.52 5.49536 334.924 14.0908C326.329 22.6862 321.5 34.3441 321.5 46.4998C321.5 58.6556 326.329 70.3135 334.924 78.9089C343.52 87.5043 355.178 92.3332 367.333 92.3332V92.3332ZM871.5 825.667H46.5001C34.3443 825.667 22.6864 830.495 14.091 839.091C5.4956 847.686 0.666748 859.344 0.666748 871.5C0.666748 883.656 5.4956 895.314 14.091 903.909C22.6864 912.504 34.3443 917.333 46.5001 917.333H871.5C883.656 917.333 895.314 912.504 903.909 903.909C912.505 895.314 917.333 883.656 917.333 871.5C917.333 859.344 912.505 847.686 903.909 839.091C895.314 830.495 883.656 825.667 871.5 825.667ZM871.5 184H46.5001C34.3443 184 22.6864 188.829 14.091 197.424C5.4956 206.02 0.666748 217.677 0.666748 229.833C0.666748 241.989 5.4956 253.647 14.091 262.242C22.6864 270.838 34.3443 275.667 46.5001 275.667H871.5C883.656 275.667 895.314 270.838 903.909 262.242C912.505 253.647 917.333 241.989 917.333 229.833C917.333 217.677 912.505 206.02 903.909 197.424C895.314 188.829 883.656 184 871.5 184ZM871.5 642.333H413.167C401.011 642.333 389.353 647.162 380.758 655.757C372.162 664.353 367.333 676.011 367.333 688.167C367.333 700.322 372.162 711.98 380.758 720.576C389.353 729.171 401.011 734 413.167 734H871.5C883.656 734 895.314 729.171 903.909 720.576C912.505 711.98 917.333 700.322 917.333 688.167C917.333 676.011 912.505 664.353 903.909 655.757C895.314 647.162 883.656 642.333 871.5 642.333ZM871.5 367.333H46.5001C34.3443 367.333 22.6864 372.162 14.091 380.757C5.4956 389.353 0.666748 401.011 0.666748 413.167C0.666748 425.322 5.4956 436.98 14.091 445.576C22.6864 454.171 34.3443 459 46.5001 459H871.5C883.656 459 895.314 454.171 903.909 445.576C912.505 436.98 917.333 425.322 917.333 413.167C917.333 401.011 912.505 389.353 903.909 380.757C895.314 372.162 883.656 367.333 871.5 367.333Z" fill="white"/>
</svg>
