<svg width="758" height="964" viewBox="0 0 758 964" fill="none" xmlns="http://www.w3.org/2000/svg">
<g id="database">
<path id="Vector" d="M0.875 358.247V481.997C0.875 598.872 165.875 688.247 379 688.247C592.125 688.247 757.125 598.872 757.125 481.997V358.247C681.5 433.872 544 481.997 379 481.997C214 481.997 76.5 433.872 0.875 358.247Z" fill="#B51A1A"/>
<path id="Vector_2" d="M0.875 633.247V756.997C0.875 873.872 165.875 963.247 379 963.247C592.125 963.247 757.125 873.872 757.125 756.997V633.247C681.5 708.872 544 756.997 379 756.997C214 756.997 76.5 708.872 0.875 633.247Z" fill="#800000"/>
<path id="Vector_3" d="M379 413.25C587.833 413.25 757.125 320.909 757.125 207C757.125 93.0913 587.833 0.75 379 0.75C170.167 0.75 0.875 93.0913 0.875 207C0.875 320.909 170.167 413.25 379 413.25Z" fill="#834A4A"/>
</g>
</svg>
