<svg width="48" height="48" viewBox="0 0 48 48" fill="none" xmlns="http://www.w3.org/2000/svg">
<path d="M24 48C37.2548 48 48 37.2548 48 24C48 10.7452 37.2548 0 24 0C10.7452 0 0 10.7452 0 24C0 37.2548 10.7452 48 24 48Z" fill="white"/>
<g filter="url(#filter0_d)">
<path d="M40.5 15.8243V36C40.5 36.8284 39.8284 37.5 39 37.5H9C8.17157 37.5 7.5 36.8284 7.5 36V15.8243C7.5 14.4884 9.11481 13.8189 10.06 14.763L22.2333 26.9215C23.2094 27.8964 24.7906 27.8964 25.7667 26.9215L37.94 14.763C38.8852 13.8189 40.5 14.4884 40.5 15.8243Z" fill="#4682B4" stroke="white"/>
<path d="M8.69999 12.7617H39.3001C40.7178 12.7617 41.3443 14.547 40.2373 15.4329L24.9373 27.6774C24.3893 28.1159 23.6107 28.1159 23.0627 27.6774L7.76273 15.4329C6.65579 14.547 7.2822 12.7617 8.69999 12.7617Z" fill="#4682B4" stroke="white"/>
</g>
<defs>
<filter id="filter0_d" x="2.69604" y="10.2617" width="42.608" height="33.7383" filterUnits="userSpaceOnUse" color-interpolation-filters="sRGB">
<feFlood flood-opacity="0" result="BackgroundImageFix"/>
<feColorMatrix in="SourceAlpha" type="matrix" values="0 0 0 0 0 0 0 0 0 0 0 0 0 0 0 0 0 0 127 0"/>
<feOffset dy="2"/>
<feGaussianBlur stdDeviation="2"/>
<feColorMatrix type="matrix" values="0 0 0 0 0 0 0 0 0 0 0 0 0 0 0 0 0 0 0.25 0"/>
<feBlend mode="normal" in2="BackgroundImageFix" result="effect1_dropShadow"/>
<feBlend mode="normal" in="SourceGraphic" in2="effect1_dropShadow" result="shape"/>
</filter>
</defs>
</svg>
