<svg width="48" height="48" viewBox="0 0 48 48" fill="none" xmlns="http://www.w3.org/2000/svg">
<g id="linkedinIcon 1">
<g id="linkedinIcon">
<path id="background" d="M23.9999 0C37.2555 0 48 10.746 48 24.0001C48 37.2542 37.2555 48 23.9999 48C10.7443 48 0 37.254 0 24.0001C0 10.7462 10.7445 0 23.9999 0Z" fill="#2F88D1"/>
<path id="in" d="M13.524 32.976H18.018V17.9969H13.524V32.976ZM31.032 17.4781C28.851 17.4781 26.8995 18.2746 25.5151 20.0326V17.9477H21.0046V32.9761H25.5151V24.8491C25.5151 23.1316 27.0887 21.4561 29.0596 21.4561C31.0306 21.4561 31.5166 23.1316 31.5166 24.8071V32.9746H36.0107V24.4726C36.0105 18.567 33.2146 17.4781 31.032 17.4781ZM15.75 16.5C16.992 16.5 18.0001 15.492 18.0001 14.2499C18.0001 13.0079 16.992 12 15.75 12C14.508 12 13.4999 13.0081 13.4999 14.2501C13.4999 15.4921 14.508 16.5 15.75 16.5Z" fill="white"/>
</g>
</g>
</svg>
