<svg width="99" height="114" viewBox="0 0 99 114" fill="none" xmlns="http://www.w3.org/2000/svg">
<path d="M91.1964 1.3049e-05H29.3918C28.8216 -0.00136703 28.2568 0.106735 27.7301 0.318063C27.2034 0.52939 26.7252 0.839747 26.3232 1.23117L2.12054 24.6606C1.71581 25.0494 1.39496 25.5123 1.17662 26.0222C0.958281 26.5321 0.846811 27.079 0.848689 27.631V105.494C0.851332 107.498 1.67492 109.419 3.13875 110.835C4.60259 112.252 6.58713 113.049 8.65699 113.05H91.1964C93.2656 113.048 95.2494 112.251 96.7123 110.834C98.1753 109.418 98.998 107.497 99 105.494V7.55881C98.9981 5.55545 98.1755 3.63459 96.7126 2.21758C95.2497 0.800556 93.2659 0.00306116 91.1964 1.3049e-05ZM90.3194 78.7692V104.65H9.52933V31.8327H25.9261C27.9957 31.8306 29.98 31.0338 31.4434 29.6171C32.9069 28.2004 33.73 26.2796 33.7321 24.2761V8.40327H90.3194L90.3194 78.7692Z" fill="#4682B4"/>
<path d="M82.0922 67.4567H24.3437C23.1417 67.4567 21.9889 67.6487 21.139 67.9903C20.2891 68.332 19.8116 68.7954 19.8116 69.2786C19.8116 69.7618 20.2891 70.2252 21.139 70.5669C21.9889 70.9086 23.1417 71.1005 24.3437 71.1005H82.0922C83.2942 71.1005 84.4469 70.9086 85.2969 70.5669C86.1468 70.2252 86.6243 69.7618 86.6243 69.2786C86.6243 68.7954 86.1468 68.332 85.2969 67.9903C84.4469 67.6487 83.2942 67.4567 82.0922 67.4567Z" fill="#4682B4"/>
<path d="M82.0922 74.7444H24.3437C23.1417 74.7444 21.9889 74.9363 21.139 75.278C20.2891 75.6197 19.8116 76.0831 19.8116 76.5663C19.8116 77.0495 20.2891 77.5129 21.139 77.8546C21.9889 78.1962 23.1417 78.3882 24.3437 78.3882H82.0922C83.2942 78.3882 84.4469 78.1962 85.2969 77.8546C86.1468 77.5129 86.6243 77.0495 86.6243 76.5663C86.6243 76.0831 86.1468 75.6197 85.2969 75.278C84.4469 74.9363 83.2942 74.7444 82.0922 74.7444Z" fill="#4682B4"/>
<path d="M82.0922 82.032H24.3437C23.1417 82.032 21.9889 82.224 21.139 82.5656C20.2891 82.9073 19.8116 83.3707 19.8116 83.8539C19.8116 84.3371 20.2891 84.8005 21.139 85.1422C21.9889 85.4839 23.1417 85.6758 24.3437 85.6758H82.0922C83.2942 85.6758 84.4469 85.4839 85.2969 85.1422C86.1468 84.8005 86.6243 84.3371 86.6243 83.8539C86.6243 83.3707 86.1468 82.9073 85.2969 82.5656C84.4469 82.224 83.2942 82.032 82.0922 82.032Z" fill="#4682B4"/>
<path d="M82.0922 89.3196H24.3437C23.1417 89.3196 21.9889 89.5116 21.139 89.8533C20.2891 90.1949 19.8116 90.6584 19.8116 91.1416C19.8116 91.6248 20.2891 92.0882 21.139 92.4298C21.9889 92.7715 23.1417 92.9635 24.3437 92.9635H82.0922C83.2942 92.9635 84.4469 92.7715 85.2969 92.4298C86.1468 92.0882 86.6243 91.6248 86.6243 91.1416C86.6243 90.6584 86.1468 90.1949 85.2969 89.8533C84.4469 89.5116 83.2942 89.3196 82.0922 89.3196Z" fill="#4682B4"/>
<path d="M19.8116 61.991C19.8129 62.4739 20.0768 62.9367 20.5453 63.2782C21.0139 63.6196 21.649 63.8119 22.3117 63.8129H84.1241C84.7872 63.8129 85.4231 63.621 85.892 63.2793C86.3609 62.9376 86.6243 62.4742 86.6243 61.991C86.6243 61.5078 86.3609 61.0444 85.892 60.7027C85.4231 60.361 84.7872 60.1691 84.1241 60.1691H22.3117C21.9833 60.1689 21.658 60.2158 21.3546 60.3073C21.0511 60.3988 20.7754 60.533 20.5431 60.7022C20.3109 60.8714 20.1268 61.0724 20.0012 61.2935C19.8757 61.5147 19.8113 61.7517 19.8116 61.991V61.991Z" fill="#4682B4"/>
<path d="M62.5731 29.3387L63.5412 34.1695C63.8222 35.5682 64.5971 36.8286 65.7329 37.7349C66.8687 38.6411 68.2948 39.1367 69.7667 39.1367C71.2386 39.1367 72.6646 38.6411 73.8004 37.7349C74.9362 36.8286 75.7111 35.5682 75.9921 34.1695L76.9603 29.3387C77.0887 28.4243 77.0135 27.4939 76.7398 26.6099C76.466 25.726 76 24.909 75.3731 24.2139C74.7461 23.5187 73.9728 22.9615 73.1049 22.5796C72.2371 22.1978 71.2949 22.0002 70.3417 22H69.1917C68.2384 22.0002 67.2962 22.1978 66.4284 22.5796C65.5606 22.9615 64.7872 23.5187 64.1603 24.2139C63.5333 24.909 63.0673 25.726 62.7935 26.6099C62.5198 27.4939 62.4446 28.4243 62.5731 29.3387Z" fill="#4682B4"/>
<path d="M69.7667 47.2902L63.281 41.0117L56.5217 43.3356C56.2182 43.4399 55.9474 43.6178 55.7351 43.8523C55.5228 44.0868 55.3762 44.3701 55.3093 44.6751L53 55.1957H86.5333L84.224 44.6751C84.1571 44.3701 84.0105 44.0868 83.7982 43.8523C83.5859 43.6178 83.3151 43.4399 83.0116 43.3356L76.2523 41.0117L69.7667 47.2902Z" fill="#4682B4"/>
</svg>
