<svg width="443" height="443" viewBox="0 0 443 443" fill="none" xmlns="http://www.w3.org/2000/svg">
<rect width="443" height="443" fill="#161616"/>
<path d="M328 45.56V79.76C328 82.268 330.042 84.32 332.538 84.32H382.462C384.958 84.32 387 82.268 387 79.76V45.56C387 43.052 384.958 41 382.462 41H332.538C330.042 41 328 43.052 328 45.56Z" stroke="#1D1C1C" stroke-width="2" stroke-miterlimit="10" stroke-linecap="round" stroke-linejoin="round"/>
<path d="M328 75.2H387" stroke="#1D1C1C" stroke-width="2" stroke-miterlimit="10" stroke-linecap="round" stroke-linejoin="round"/>
<path d="M341.615 98H373.385" stroke="#1D1C1C" stroke-width="2" stroke-miterlimit="10" stroke-linecap="round" stroke-linejoin="round"/>
<path d="M350.692 84.3201C350.692 89.1081 349.104 94.8081 346.608 98.0001" stroke="#1D1C1C" stroke-width="2" stroke-miterlimit="10" stroke-linecap="round" stroke-linejoin="round"/>
<path d="M368.392 98.0001C365.896 94.8081 364.308 89.1081 364.308 84.3201" stroke="#1D1C1C" stroke-width="2" stroke-miterlimit="10" stroke-linecap="round" stroke-linejoin="round"/>
<path d="M337.077 52.3999L343.885 59.2399L337.077 66.0799" stroke="#1D1C1C" stroke-width="2" stroke-miterlimit="10" stroke-linecap="round" stroke-linejoin="round"/>
<path d="M350.692 66.0801H359.769" stroke="#1D1C1C" stroke-width="2" stroke-miterlimit="10" stroke-linecap="round" stroke-linejoin="round"/>
<path d="M210 169.56V203.76C210 206.268 212.042 208.32 214.538 208.32H264.462C266.958 208.32 269 206.268 269 203.76V169.56C269 167.052 266.958 165 264.462 165H214.538C212.042 165 210 167.052 210 169.56Z" stroke="#1D1C1C" stroke-width="2" stroke-miterlimit="10" stroke-linecap="round" stroke-linejoin="round"/>
<path d="M210 199.2H269" stroke="#1D1C1C" stroke-width="2" stroke-miterlimit="10" stroke-linecap="round" stroke-linejoin="round"/>
<path d="M223.615 222H255.385" stroke="#1D1C1C" stroke-width="2" stroke-miterlimit="10" stroke-linecap="round" stroke-linejoin="round"/>
<path d="M232.692 208.32C232.692 213.108 231.104 218.808 228.608 222" stroke="#1D1C1C" stroke-width="2" stroke-miterlimit="10" stroke-linecap="round" stroke-linejoin="round"/>
<path d="M250.392 222C247.896 218.808 246.308 213.108 246.308 208.32" stroke="#1D1C1C" stroke-width="2" stroke-miterlimit="10" stroke-linecap="round" stroke-linejoin="round"/>
<path d="M219.077 176.4L225.885 183.24L219.077 190.08" stroke="#1D1C1C" stroke-width="2" stroke-miterlimit="10" stroke-linecap="round" stroke-linejoin="round"/>
<path d="M232.692 190.08H241.769" stroke="#1D1C1C" stroke-width="2" stroke-miterlimit="10" stroke-linecap="round" stroke-linejoin="round"/>
<path d="M360 322.6C359.456 322.6 358.924 322.764 358.472 323.072C358.02 323.38 357.667 323.817 357.459 324.328C357.251 324.84 357.197 325.403 357.303 325.946C357.409 326.489 357.671 326.988 358.055 327.38C358.44 327.771 358.93 328.038 359.464 328.146C359.997 328.254 360.55 328.199 361.052 327.987C361.555 327.775 361.984 327.416 362.287 326.956C362.589 326.495 362.75 325.954 362.75 325.4C362.75 324.657 362.46 323.945 361.945 323.42C361.429 322.895 360.729 322.6 360 322.6V322.6ZM371 282C360 282 349 285.836 349 293.2V326.8C349 334.164 360 338 371 338C382 338 393 334.164 393 326.8V293.2C393 285.836 382 282 371 282ZM387.5 326.8C387.5 328.788 381.23 332.4 371 332.4C360.77 332.4 354.5 328.788 354.5 326.8V317.644C359.648 320.136 365.302 321.354 371 321.2C376.698 321.354 382.352 320.136 387.5 317.644V326.8ZM387.5 310C387.5 311.988 381.23 315.6 371 315.6C360.77 315.6 354.5 311.988 354.5 310V300.844C359.648 303.336 365.302 304.554 371 304.4C376.698 304.554 382.352 303.336 387.5 300.844V310ZM371 298.8C360.77 298.8 354.5 295.188 354.5 293.2C354.5 291.212 360.77 287.6 371 287.6C381.23 287.6 387.5 291.212 387.5 293.2C387.5 295.188 381.23 298.8 371 298.8ZM360 305.8C359.456 305.8 358.924 305.964 358.472 306.272C358.02 306.58 357.667 307.017 357.459 307.528C357.251 308.04 357.197 308.603 357.303 309.146C357.409 309.689 357.671 310.188 358.055 310.58C358.44 310.971 358.93 311.238 359.464 311.346C359.997 311.454 360.55 311.399 361.052 311.187C361.555 310.975 361.984 310.616 362.287 310.156C362.589 309.695 362.75 309.154 362.75 308.6C362.75 307.857 362.46 307.145 361.945 306.62C361.429 306.095 360.729 305.8 360 305.8V305.8Z" fill="#1D1C1C"/>
<path d="M55 272.6C54.4561 272.6 53.9244 272.764 53.4722 273.072C53.0199 273.38 52.6675 273.817 52.4593 274.328C52.2512 274.84 52.1967 275.403 52.3028 275.946C52.4089 276.489 52.6709 276.988 53.0555 277.38C53.4401 277.771 53.9301 278.038 54.4635 278.146C54.9969 278.254 55.5499 278.199 56.0524 277.987C56.5549 277.775 56.9844 277.416 57.2865 276.956C57.5887 276.495 57.75 275.954 57.75 275.4C57.75 274.657 57.4603 273.945 56.9445 273.42C56.4288 272.895 55.7293 272.6 55 272.6V272.6ZM66 232C55 232 44 235.836 44 243.2V276.8C44 284.164 55 288 66 288C77 288 88 284.164 88 276.8V243.2C88 235.836 77 232 66 232ZM82.5 276.8C82.5 278.788 76.23 282.4 66 282.4C55.77 282.4 49.5 278.788 49.5 276.8V267.644C54.6482 270.136 60.3017 271.354 66 271.2C71.6983 271.354 77.3518 270.136 82.5 267.644V276.8ZM82.5 260C82.5 261.988 76.23 265.6 66 265.6C55.77 265.6 49.5 261.988 49.5 260V250.844C54.6482 253.336 60.3017 254.554 66 254.4C71.6983 254.554 77.3518 253.336 82.5 250.844V260ZM66 248.8C55.77 248.8 49.5 245.188 49.5 243.2C49.5 241.212 55.77 237.6 66 237.6C76.23 237.6 82.5 241.212 82.5 243.2C82.5 245.188 76.23 248.8 66 248.8ZM55 255.8C54.4561 255.8 53.9244 255.964 53.4722 256.272C53.0199 256.58 52.6675 257.017 52.4593 257.528C52.2512 258.04 52.1967 258.603 52.3028 259.146C52.4089 259.689 52.6709 260.188 53.0555 260.58C53.4401 260.971 53.9301 261.238 54.4635 261.346C54.9969 261.454 55.5499 261.399 56.0524 261.187C56.5549 260.975 56.9844 260.616 57.2865 260.156C57.5887 259.695 57.75 259.154 57.75 258.6C57.75 257.857 57.4603 257.145 56.9445 256.62C56.4288 256.095 55.7293 255.8 55 255.8V255.8Z" fill="#1D1C1C"/>
<path fill-rule="evenodd" clip-rule="evenodd" d="M152.303 376.83C146.974 378.035 143 382.719 143 388.294C143 394.792 148.394 400.059 155.008 400.059H205.992C212.624 400.059 218 394.778 218 388.294C218 382.772 214.104 378.139 208.874 376.872C208.957 376.279 209 375.674 209 375.059C209 367.749 202.956 361.824 195.5 361.824C191.823 361.824 188.49 363.264 186.055 365.602C183.083 359.869 177.009 355.941 170 355.941C160.059 355.941 152 363.842 152 373.588C152 374.696 152.104 375.779 152.303 376.83ZM211.998 374.807C217.303 377.074 221 382.26 221 388.294C221 396.399 214.285 403 206.002 403H154.998C146.697 403 140 396.416 140 388.294C140 382.262 143.719 377.064 149.036 374.799C149.012 374.398 149 373.995 149 373.588C149 362.218 158.402 353 170 353C176.894 353 183.012 356.257 186.841 361.286C189.358 359.762 192.324 358.882 195.5 358.882C204.527 358.882 211.861 365.989 211.998 374.807Z" fill="#1D1C1C"/>
<path fill-rule="evenodd" clip-rule="evenodd" d="M78.303 64.8299C72.9738 66.0345 69 70.7194 69 76.2941C69 82.7916 74.3938 88.0588 81.0084 88.0588H131.992C138.624 88.0588 144 82.7784 144 76.2941C144 70.7722 140.104 66.1389 134.874 64.872C134.957 64.2792 135 63.6739 135 63.0588C135 55.7492 128.956 49.8235 121.5 49.8235C117.823 49.8235 114.49 51.2644 112.055 53.6017C109.083 47.8688 103.009 43.9412 96 43.9412C86.0589 43.9412 78 51.842 78 61.5882C78 62.6956 78.104 63.7791 78.303 64.8299ZM137.998 62.8074C143.303 65.0744 147 70.2598 147 76.2941C147 84.3994 140.285 91 132.002 91H80.9983C72.6975 91 66 84.416 66 76.2941C66 70.2621 69.719 65.0636 75.0357 62.7986C75.012 62.3981 75 61.9946 75 61.5882C75 50.2177 84.402 41 96 41C102.894 41 109.012 44.2567 112.841 49.2865C115.358 47.762 118.324 46.8824 121.5 46.8824C130.527 46.8824 137.861 53.9893 137.998 62.8074Z" fill="#1D1C1C"/>
</svg>
