<svg width="48" height="49" viewBox="0 0 48 49" fill="none" xmlns="http://www.w3.org/2000/svg">
<g id="github-Icon 1">
<path id="Vector" d="M24 49C37.2548 49 48 38.031 48 24.5C48 10.969 37.2548 0 24 0C10.7452 0 0 10.969 0 24.5C0 38.031 10.7452 49 24 49Z" fill="black"/>
<path id="Vector_2" fill-rule="evenodd" clip-rule="evenodd" d="M23.9985 0C10.746 0 0 11.0166 0 24.6093C0 35.4798 6.876 44.7031 16.4145 47.9575C17.6145 48.1836 18.0525 47.4238 18.0525 46.7717C18.0525 46.1873 18.0315 44.6401 18.0195 42.5869C11.343 44.0741 9.9345 39.2879 9.9345 39.2879C8.844 36.4457 7.2705 35.689 7.2705 35.689C5.091 34.1618 7.4355 34.1925 7.4355 34.1925C9.843 34.3663 11.1105 36.7287 11.1105 36.7287C13.2525 40.4891 16.728 39.4032 18.096 38.7727C18.3135 37.1824 18.9345 36.0981 19.62 35.4829C14.2905 34.8616 8.688 32.7514 8.688 23.322C8.688 20.6352 9.6225 18.4389 11.1585 16.7179C10.911 16.095 10.0875 13.5943 11.3925 10.2061C11.3925 10.2061 13.4085 9.54475 17.9925 12.7284C19.908 12.1824 21.96 11.9102 24.0015 11.8994C26.04 11.9102 28.0935 12.1824 30.0105 12.7284C34.5915 9.54475 36.603 10.2061 36.603 10.2061C37.9125 13.5943 37.089 16.095 36.8415 16.7179C38.3805 18.4389 39.309 20.6352 39.309 23.322C39.309 32.7745 33.6975 34.8554 28.3515 35.4645C29.2125 36.2242 29.9805 37.7253 29.9805 40.0215C29.9805 43.3113 29.9505 45.9643 29.9505 46.7717C29.9505 47.43 30.3825 48.1959 31.6005 47.9544C41.13 44.6939 48 35.4768 48 24.6093C48 11.0166 37.254 0 23.9985 0Z" fill="white"/>
</g>
</svg>
