<svg width="80" height="75" viewBox="0 0 80 75" fill="none" xmlns="http://www.w3.org/2000/svg">
<g id="logo" filter="url(#filter0_d)">
<g id="your">
<path id="Rectangle 2" d="M9.73584 28.5267C8.86548 26.4962 9.80592 24.1447 11.8364 23.2743L41.0537 10.7502C43.0841 9.87984 45.4357 10.8203 46.3061 12.8507L55.2303 33.67L56.5111 36.658C56.9182 37.6077 56.0106 38.5919 55.0312 38.2629V38.2629C54.9637 38.2402 54.8944 38.2237 54.824 38.2133L48.3486 37.2632C47.6176 37.1559 46.8711 37.2532 46.192 37.5443L22.3366 47.77C20.3061 48.6404 17.9545 47.6999 17.0842 45.6695L9.73584 28.5267Z" fill="#4682B4"/>
<path id="Your" d="M21.7883 37.7242C22.2634 37.5257 22.5609 37.3569 22.6806 37.218C22.8028 37.0731 22.8665 36.9477 22.8717 36.8418C22.881 36.7342 22.8593 36.6173 22.8066 36.4912L22.0518 34.7025L17.3648 30.897C17.1146 30.7002 16.9001 30.5948 16.7213 30.5806C16.4205 30.5581 16.0788 30.6268 15.6962 30.7867L15.4062 30.0929L19.0582 28.5669L19.3482 29.2607C18.9445 29.4294 18.728 29.5791 18.6987 29.7099C18.6736 29.8389 18.7798 30.0044 19.0173 30.2065L22.4984 33.2712L22.8585 28.6014C22.8859 28.2886 22.8447 28.1132 22.7349 28.0751C22.5375 28.0045 22.1634 28.0843 21.6125 28.3145L21.3226 27.6207L24.5835 26.258L24.8735 26.9519C24.5623 27.0819 24.3277 27.2416 24.1698 27.4311C24.0161 27.6188 23.9238 27.8648 23.8929 28.1691L23.3051 33.8898L24.1564 35.9271C24.2671 36.192 24.4268 36.3377 24.6354 36.3641C24.844 36.3906 25.2132 36.2931 25.743 36.0717L26.0329 36.7655L22.0782 38.4181L21.7883 37.7242ZM27.4777 32.3685C27.2668 31.8639 27.1505 31.3668 27.1286 30.8771C27.1091 30.3814 27.1814 29.9338 27.3454 29.5344C27.6686 28.7474 28.2906 28.1615 29.2114 27.7767C30.1407 27.3884 31.0061 27.3552 31.8074 27.6773C32.6112 27.9934 33.2275 28.6644 33.6562 29.6904C34.0832 30.7122 34.1665 31.6504 33.9062 32.505C33.6459 33.3596 33.007 33.9995 31.9894 34.4247C30.9718 34.8499 30.0698 34.8663 29.2835 34.4737C28.4995 34.0752 27.8976 33.3735 27.4777 32.3685ZM31.6731 33.6678C32.1609 33.464 32.463 33.076 32.5795 32.5037C32.7002 31.9297 32.5919 31.2391 32.2546 30.4317C31.7116 29.1324 31.0445 28.4579 30.2532 28.4082C30.0092 28.3916 29.7674 28.4334 29.5277 28.5336C28.7498 28.8586 28.4399 29.5413 28.598 30.5816C28.6492 30.9406 28.7653 31.3366 28.9463 31.7697C29.2942 32.6023 29.7126 33.1782 30.2016 33.4974C30.6948 33.8148 31.1853 33.8716 31.6731 33.6678ZM40.3727 29.5584C40.1703 30.5518 39.6298 31.2321 38.7509 31.5993C38.116 31.8646 37.5402 31.8756 37.0236 31.6321C36.507 31.3886 36.0861 30.8779 35.7611 30.1L34.6673 27.4824C34.5408 27.1797 34.4308 26.9935 34.3375 26.9238C34.2484 26.8524 34.0882 26.865 33.8569 26.9616L33.6929 27.0302L33.403 26.3364C33.7899 26.1747 34.0572 26.0284 34.205 25.8975C34.3553 25.7606 34.463 25.6638 34.5281 25.6069C34.5915 25.5459 34.6779 25.4925 34.7872 25.4468C35.0016 25.3572 35.1727 25.3647 35.3004 25.4694C35.4264 25.5699 35.55 25.7652 35.6712 26.0553L37.1419 29.5749C37.3352 30.0374 37.5153 30.3326 37.6823 30.4604C38.0026 30.7068 38.3878 30.7361 38.8377 30.5481C39.1404 30.4216 39.3889 30.177 39.5831 29.8143C39.7773 29.4516 39.8686 29.085 39.857 28.7145L38.6472 25.8194C38.5088 25.5117 38.3959 25.3243 38.3086 25.2571C38.2212 25.1898 38.0619 25.2046 37.8306 25.3012L37.4711 25.4514L37.1812 24.7576C37.5806 24.5907 37.8753 24.433 38.0652 24.2845C38.2575 24.1301 38.3946 24.0209 38.4766 23.957C38.5568 23.8889 38.6515 23.832 38.7609 23.7863C38.9753 23.6967 39.1446 23.7001 39.2688 23.7963C39.3972 23.8909 39.5212 24.0811 39.6407 24.367L41.3275 28.4038C41.4979 28.8117 41.6222 29.056 41.7005 29.1369C41.8451 29.2939 42.052 29.3161 42.3211 29.2036C42.464 29.1439 42.5763 29.0698 42.6579 28.9814L42.9136 29.5932C42.775 29.8289 42.5312 30.0197 42.1822 30.1655C41.4505 30.4713 40.8473 30.2689 40.3727 29.5584ZM43.347 28.7156C43.7086 28.5645 43.9208 28.4339 43.9834 28.3238C44.0443 28.2094 44.0656 28.1067 44.0472 28.0156C44.0331 27.9227 43.9997 27.8132 43.947 27.687L42.4948 24.2116C42.3683 23.9089 42.2583 23.7227 42.165 23.653C42.0759 23.5816 41.9157 23.5942 41.6844 23.6908L41.2997 23.8516L41.0098 23.1578C41.4092 22.9909 41.706 22.8323 41.9001 22.682C42.0966 22.5258 42.2358 22.4158 42.3178 22.3519C42.4022 22.2821 42.4991 22.2243 42.6084 22.1786C42.8228 22.089 42.9922 22.0923 43.1164 22.1886C43.2448 22.2831 43.3687 22.4734 43.4882 22.7593L43.5409 22.8854C43.7251 22.3096 44.0156 21.8524 44.4124 21.5137C44.5553 21.3947 44.7088 21.3009 44.8727 21.2324C45.1881 21.1006 45.4698 21.0891 45.7177 21.1979C45.9699 21.3049 46.1513 21.4909 46.262 21.7558C46.3727 22.0207 46.3791 22.2724 46.2812 22.5109C46.1833 22.7494 46.0145 22.9187 45.7748 23.0188C45.5393 23.1172 45.3087 23.1148 45.0828 23.0117C44.8611 22.9067 44.706 22.7246 44.6174 22.4653C44.4555 22.5625 44.3039 22.7197 44.1625 22.9369C44.0235 23.148 43.9279 23.3979 43.8756 23.6865L45.2857 27.061C45.3525 27.2207 45.4187 27.3437 45.4843 27.4299C45.5524 27.5101 45.6594 27.5592 45.8052 27.5773C45.9535 27.5894 46.3283 27.4699 46.9296 27.2186L47.2195 27.9124L43.6369 29.4095L43.347 28.7156Z" fill="white"/>
</g>
<g id="chats">
<path id="Rectangle 1" d="M20.9391 51.6237C20.9048 49.9942 21.8625 48.5069 23.3602 47.8639L46.3711 37.9845C47.041 37.6969 47.7768 37.5978 48.499 37.6981L70.3124 40.7255C72.2566 40.9953 73.7177 42.6359 73.7615 44.5983L74.1577 62.3481C74.2079 64.5947 72.398 66.4418 70.1508 66.4373L25.1581 66.3486C22.9849 66.3443 21.2127 64.6056 21.1669 62.4328L20.9391 51.6237Z" fill="#F08080"/>
<path id="Chats" d="M33.7857 60.287C35.2213 60.2899 36.1295 59.6308 36.5103 58.31L37.4947 58.3119C37.494 58.6674 37.3976 59.0181 37.2055 59.3641C37.0134 59.7055 36.744 60.0103 36.3971 60.2785C35.6303 60.8786 34.6453 61.1774 33.4422 61.175C32.2391 61.1727 31.2099 60.7696 30.3547 59.9658C29.363 59.0387 28.869 57.6842 28.8725 55.9023C28.8753 54.4805 29.2605 53.2826 30.028 52.3089C30.5717 51.6127 31.295 51.1288 32.1979 50.8571C32.663 50.7168 33.1736 50.6471 33.7295 50.6482C34.8279 50.6504 35.7297 50.9051 36.4351 51.4124C37.1405 51.9151 37.4924 52.5469 37.4909 53.308C37.4898 53.8777 37.2657 54.26 36.8187 54.4551C36.6864 54.5141 36.5428 54.5434 36.3879 54.5431C35.9094 54.5422 35.5885 54.3388 35.4252 53.9328C35.3753 53.8051 35.3506 53.6547 35.3509 53.4815C35.3513 53.3038 35.4017 53.1307 35.5023 52.9623C35.6029 52.7893 35.7354 52.6574 35.8996 52.5666C35.5318 51.8595 34.8717 51.505 33.9193 51.5031C32.9668 51.5012 32.1913 51.862 31.5929 52.5854C30.9945 53.3043 30.6938 54.3883 30.691 55.8376C30.6881 57.2822 30.989 58.3857 31.5936 59.1479C32.1983 59.9056 32.929 60.2853 33.7857 60.287ZM43.3391 55.0149C42.5917 55.0134 41.9851 55.2446 41.5194 55.7085L41.5117 59.5845C41.5112 59.8671 41.5564 60.0449 41.6474 60.118C41.8067 60.2413 42.1073 60.3035 42.5494 60.3043L42.5479 61.0563L39.0752 61.0494L39.0767 60.2975C39.4687 60.2982 39.7148 60.26 39.8152 60.1827C39.9157 60.1009 39.9774 60.0144 40.0003 59.9233C40.0233 59.8322 40.0349 59.7183 40.0352 59.5816L40.0498 52.1646C40.0505 51.8365 40.0213 51.6222 39.9622 51.5219C39.9077 51.4215 39.7529 51.3711 39.4977 51.3706L39.0807 51.3697L39.0822 50.6178C39.5105 50.6186 39.8456 50.5874 40.0872 50.5241C40.3335 50.4562 40.5067 50.4087 40.607 50.3815C40.7119 50.3498 40.8236 50.3341 40.9421 50.3343C41.1836 50.3348 41.3407 50.4058 41.4134 50.5472C41.4906 50.6841 41.5289 50.9052 41.5283 51.2105L41.521 54.9019C41.9912 54.4927 42.5568 54.2135 43.2179 54.0644C43.4322 54.0147 43.6419 53.9901 43.847 53.9905C45.3236 53.9934 46.0599 54.9747 46.056 56.9343L46.0508 59.5798C46.0502 59.8806 46.0931 60.0789 46.1795 60.1748C46.2659 60.2661 46.5028 60.3121 46.8902 60.3129L46.8887 61.0648L43.6553 61.0585L43.6568 60.3065C44.0715 60.3073 44.32 60.2668 44.4022 60.1849C44.4889 60.0985 44.5392 60.0097 44.5531 59.9186C44.5669 59.8275 44.574 59.7136 44.5743 59.5769L44.5793 57.0202C44.5805 56.3868 44.5222 55.9514 44.4041 55.7142C44.1726 55.2489 43.8176 55.0158 43.3391 55.0149ZM53.8236 59.4447C53.8225 59.9871 53.929 60.2584 54.1432 60.2588C54.3483 60.2592 54.4988 60.1912 54.5948 60.0547C54.6908 59.9136 54.7391 59.6607 54.7399 59.2962L55.4576 59.2976C55.4621 59.3568 55.4642 59.4502 55.4639 59.5779C55.4631 59.988 55.3599 60.3433 55.1542 60.6437C54.9028 61.026 54.5037 61.2166 53.9568 61.2155C53.6013 61.2148 53.2985 61.1139 53.0482 60.9129C52.7979 60.7119 52.6253 60.4473 52.5302 60.1189C51.868 60.8468 51.031 61.2097 50.0193 61.2077C49.4633 61.2066 48.9783 61.0439 48.5642 60.7195C48.1547 60.3906 47.9505 59.9344 47.9517 59.3511C47.9537 58.3394 48.7025 57.5935 50.1983 57.1134C51.1468 56.8144 51.7146 56.6082 51.9016 56.4946C52.0887 56.3765 52.2097 56.2583 52.2646 56.1399C52.3241 56.017 52.354 55.8803 52.3543 55.7299C52.3548 55.461 52.2231 55.2375 51.9592 55.0592C51.6952 54.8764 51.3513 54.7846 50.9275 54.7837C50.5036 54.7829 50.1297 54.8961 49.8057 55.1233C50.0332 55.2924 50.1467 55.5091 50.1462 55.7734C50.1457 56.0377 50.0564 56.2495 49.8784 56.4086C49.7049 56.5678 49.4928 56.6471 49.2422 56.6466C48.9961 56.6461 48.7911 56.5705 48.6274 56.4198C48.4682 56.2691 48.3888 56.0593 48.3893 55.7904C48.3904 55.2572 48.6601 54.8271 49.1985 54.5001C49.737 54.1684 50.3913 54.0034 51.1614 54.0049C52.5377 54.0076 53.3777 54.4559 53.6812 55.3497C53.7809 55.6461 53.8304 55.988 53.8296 56.3754L53.8236 59.4447ZM50.8123 57.7366C50.4109 57.909 50.1097 58.1317 49.9086 58.4048C49.7076 58.6733 49.6067 58.967 49.6061 59.286C49.6055 59.605 49.6916 59.8467 49.8644 60.0111C50.0373 60.1755 50.2536 60.258 50.5133 60.2585C51.042 60.2596 51.4799 60.0759 51.8269 59.7074C52.174 59.3344 52.3482 58.8152 52.3495 58.1498L52.3516 57.0971C52.0597 57.2469 51.7495 57.383 51.4211 57.5054C51.0973 57.6278 50.8944 57.7049 50.8123 57.7366ZM58.7146 61.2249C57.279 61.2221 56.5628 60.4231 56.566 58.8281L56.5727 55.4101C56.5731 55.2324 56.5505 55.1161 56.5051 55.0613C56.4642 55.002 56.3731 54.9722 56.2318 54.9719L55.6713 54.9708L55.6729 54.1505L55.9258 54.151C56.2722 54.1517 56.5253 54.0428 56.6852 53.8244C56.8497 53.606 56.9393 53.2461 56.954 52.7448L56.962 52.1365L58.0558 52.1386L58.0518 54.1552L60.1504 54.1594L60.1488 54.9797L58.0502 54.9755L58.0426 58.8105C58.0409 59.6581 58.2359 60.1644 58.6275 60.3292C58.7368 60.375 58.8461 60.398 58.9555 60.3982C59.434 60.3992 59.7469 60.0056 59.8943 59.2175L60.6873 59.219C60.6399 60.1532 60.249 60.7722 59.5147 61.0761C59.2775 61.1759 59.0108 61.2255 58.7146 61.2249ZM65.4054 55.0789C65.1735 54.846 64.7932 54.7291 64.2645 54.728C63.7359 54.727 63.3778 54.9177 63.1901 55.3001C63.1398 55.4094 63.1145 55.5347 63.1142 55.6759C63.1139 55.8127 63.1684 55.9472 63.2775 56.0796C63.3866 56.2074 63.5276 56.3307 63.7006 56.4496C63.8735 56.5638 64.067 56.6759 64.281 56.7857C64.4995 56.8955 64.7249 57.0144 64.957 57.1425C65.1892 57.2705 65.435 57.4055 65.6945 57.5473C66.646 58.0687 67.1211 58.6461 67.1198 59.2796C67.1186 59.9085 66.8715 60.3933 66.3787 60.7342C65.8858 61.0704 65.2315 61.2378 64.4157 61.2361C63.6045 61.2345 62.9349 61.0874 62.4068 60.7947C61.8788 60.502 61.6152 60.1255 61.6161 59.6652C61.6166 59.4145 61.699 59.2028 61.8635 59.0299C62.0324 58.8571 62.2445 58.7709 62.4997 58.7714C62.7595 58.7719 62.9735 58.8544 63.1418 59.0188C63.3101 59.1786 63.394 59.3702 63.3936 59.5935C63.3932 59.8168 63.3153 60.0058 63.1601 60.1604C63.5242 60.3708 63.9752 60.4765 64.5129 60.4775C65.0553 60.4786 65.436 60.354 65.6553 60.1038C65.7466 60.0037 65.7925 59.8739 65.7928 59.7144C65.7935 59.3362 65.375 58.9412 64.5373 58.5293C63.9545 58.2411 63.5175 58.0146 63.2261 57.85C62.2929 57.3195 61.8271 56.6806 61.8285 55.9332C61.8297 55.359 62.0676 54.8991 62.5422 54.5537C63.0214 54.2083 63.6301 54.0363 64.3684 54.0378C65.1067 54.0393 65.7262 54.1795 66.227 54.4585C66.7323 54.7329 66.9845 55.0889 66.9837 55.5264C66.9832 55.7816 66.9213 55.9706 66.798 56.0934C66.5834 56.3071 66.3781 56.4138 66.1821 56.4134C65.8631 56.4128 65.6217 56.3326 65.458 56.1728C65.2988 56.0084 65.2194 55.8214 65.2198 55.6117C65.2202 55.4021 65.2821 55.2245 65.4054 55.0789Z" fill="white"/>
</g>
</g>
<defs>
<filter id="filter0_d" x="4.15991" y="9.17427" width="74.0476" height="65.271" filterUnits="userSpaceOnUse" color-interpolation-filters="sRGB">
<feFlood flood-opacity="0" result="BackgroundImageFix"/>
<feColorMatrix in="SourceAlpha" type="matrix" values="0 0 0 0 0 0 0 0 0 0 0 0 0 0 0 0 0 0 127 0"/>
<feOffset dy="4"/>
<feGaussianBlur stdDeviation="2"/>
<feColorMatrix type="matrix" values="0 0 0 0 0 0 0 0 0 0 0 0 0 0 0 0 0 0 0.25 0"/>
<feBlend mode="normal" in2="BackgroundImageFix" result="effect1_dropShadow"/>
<feBlend mode="normal" in="SourceGraphic" in2="effect1_dropShadow" result="shape"/>
</filter>
</defs>
</svg>
