<svg width="382" height="125" viewBox="0 0 382 125" fill="none" xmlns="http://www.w3.org/2000/svg">
<g id="allThemedDialogueLogo">
<path id="icon" d="M10.0266 42.2257C9.96687 36.8336 12.2688 32.1203 15.1683 31.6978L36.0291 28.6587L56.8898 25.6195C59.7892 25.1971 62.1882 29.2258 62.248 34.6177L62.8611 89.9044L62.9491 97.8392C62.9771 100.361 61.3881 101.93 60.3581 100.397C60.2871 100.292 60.2109 100.199 60.1304 100.12L52.7175 92.8277C51.8807 92.0045 50.9244 91.6434 49.9546 91.7847L15.8898 96.7475C12.9902 97.17 10.5913 93.1412 10.5316 87.7494L10.0266 42.2257Z" fill="#2B6BFF"/>
<path id="text" d="M100.035 34C105.308 34 109.298 35.3766 112.005 38.13C114.758 40.8366 116.135 44.8266 116.135 50.1V66.9C116.135 72.1733 114.758 76.1866 112.005 78.94C109.298 81.6466 105.308 83 100.035 83H72.7349V34H100.035ZM103.535 50.1C103.535 45.9 101.435 43.8 97.2349 43.8H85.3349V73.2H97.2349C101.435 73.2 103.535 71.1 103.535 66.9V50.1ZM137.816 47.3V83H125.566V56.75H120.316V47.3H137.816ZM125.566 33.3H137.816V43.1H125.566V33.3ZM159.538 73.9C162.011 73.9 164.811 73.4333 167.938 72.5V68.3H157.788C157.088 68.3 156.504 68.5333 156.038 69C155.571 69.4666 155.338 70.05 155.338 70.75V71.45C155.338 72.15 155.571 72.7333 156.038 73.2C156.504 73.6666 157.088 73.9 157.788 73.9H159.538ZM146.588 46.6C155.128 45.6666 162.828 45.2 169.688 45.2C172.861 45.2 175.404 46.1566 177.318 48.07C179.231 49.9833 180.188 52.5266 180.188 55.7V83H169.338L168.638 79.5C166.444 80.9466 164.181 82.02 161.848 82.72C159.561 83.3733 157.624 83.7 156.038 83.7H153.588C150.414 83.7 147.871 82.7433 145.958 80.83C144.044 78.9166 143.088 76.3733 143.088 73.2V70.05C143.088 66.8766 144.044 64.3333 145.958 62.42C147.871 60.5066 150.414 59.55 153.588 59.55H167.938V56.75C167.938 56.05 167.704 55.4666 167.238 55C166.771 54.5333 166.188 54.3 165.488 54.3C162.454 54.3 159.094 54.44 155.408 54.72C151.768 55 148.828 55.21 146.588 55.35V46.6ZM205.369 83C202.242 83.4666 199.255 83.7 196.409 83.7C193.609 83.7 191.252 82.7433 189.339 80.83C187.425 78.9166 186.469 76.3733 186.469 73.2V34H198.719V71.45C198.719 72.15 198.952 72.7333 199.419 73.2C199.885 73.6666 200.469 73.9 201.169 73.9H205.369V83ZM248.058 72.5C248.058 76 247.054 78.7533 245.048 80.76C243.088 82.72 240.358 83.7 236.858 83.7H220.758C217.258 83.7 214.504 82.72 212.498 80.76C210.538 78.7533 209.558 76 209.558 72.5V56.4C209.558 52.9 210.538 50.17 212.498 48.21C214.504 46.2033 217.258 45.2 220.758 45.2H236.858C240.358 45.2 243.088 46.2033 245.048 48.21C247.054 50.17 248.058 52.9 248.058 56.4V72.5ZM235.808 57.45C235.808 55.5833 234.874 54.65 233.008 54.65H224.608C222.741 54.65 221.808 55.5833 221.808 57.45V71.45C221.808 73.3166 222.741 74.25 224.608 74.25H233.008C234.874 74.25 235.808 73.3166 235.808 71.45V57.45ZM278.499 80.2C273.973 81.1333 270.006 81.6 266.599 81.6H264.149C260.976 81.6 258.433 80.6433 256.519 78.73C254.606 76.8166 253.649 74.2733 253.649 71.1V57.1C253.649 53.6 254.629 50.87 256.589 48.91C258.596 46.9033 261.349 45.9 264.849 45.9H290.749V85.1C290.749 88.2733 289.793 90.8166 287.879 92.73C285.966 94.6433 283.423 95.6 280.249 95.6C272.923 95.6 264.756 95.1333 255.749 94.2V85.1C264.663 85.8 271.429 86.15 276.049 86.15C276.749 86.15 277.333 85.9166 277.799 85.45C278.266 84.9833 278.499 84.4 278.499 83.7V80.2ZM270.099 72.15C273.039 72.15 275.839 71.9166 278.499 71.45V55.35H268.699C266.833 55.35 265.899 56.2833 265.899 58.15V69.7C265.899 70.4 266.133 70.9833 266.599 71.45C267.066 71.9166 267.649 72.15 268.349 72.15H270.099ZM314.908 73.55C317.381 73.55 320.181 73.0833 323.308 72.15V45.9H335.558V83H324.708L324.008 79.5C321.814 80.9466 319.551 82.02 317.218 82.72C314.931 83.3733 312.994 83.7 311.408 83.7H308.258C305.084 83.7 302.541 82.7433 300.628 80.83C298.714 78.9166 297.758 76.3733 297.758 73.2V45.9H310.008V71.1C310.008 71.8 310.241 72.3833 310.708 72.85C311.174 73.3166 311.758 73.55 312.458 73.55H314.908ZM356.883 53.95C355.016 53.95 354.083 54.8833 354.083 56.75V60.6H365.983V56.75C365.983 54.8833 365.05 53.95 363.183 53.95H356.883ZM376.833 82.3C367.826 83.2333 359.66 83.7 352.333 83.7C349.16 83.7 346.616 82.7433 344.703 80.83C342.79 78.9166 341.833 76.3733 341.833 73.2V56.4C341.833 52.9 342.813 50.17 344.773 48.21C346.78 46.2033 349.533 45.2 353.033 45.2H367.033C370.533 45.2 373.263 46.2033 375.223 48.21C377.23 50.17 378.233 52.9 378.233 56.4V69.35H354.083V72.15C354.083 72.85 354.316 73.4333 354.783 73.9C355.25 74.3666 355.833 74.6 356.533 74.6C361.153 74.6 367.92 74.25 376.833 73.55V82.3Z" fill="#2B6BFF"/>
</g>
</svg>
