<svg width="49" height="49" viewBox="0 0 49 49" fill="none" xmlns="http://www.w3.org/2000/svg">
<g id="codepen" clip-path="url(#clip0_104_2)">
<path id="background" d="M24.4999 0C38.0317 0 49 10.9699 49 24.5001C49 38.0303 38.0317 49 24.4999 49C10.9681 49 0 38.0301 0 24.5001C0 10.9701 10.9683 0 24.4999 0Z" fill="black"/>
<path id="codepen_2" fill-rule="evenodd" clip-rule="evenodd" d="M36.6704 26.0987L33.4382 24.2292L36.6704 22.3596V26.0987ZM25.5128 34.0239V28.8133L31.1146 25.5739L35.6359 28.1885L25.5128 34.0239ZM24.2209 26.8722L19.6517 24.2292L24.2209 21.5861L28.791 24.2292L24.2209 26.8722ZM22.9289 34.0239L12.8058 28.1885L17.3281 25.5739L22.9289 28.8133V34.0239ZM11.7714 22.3596L15.0045 24.2292L11.7714 26.0987V22.3596ZM22.9289 14.4345V19.645L17.3281 22.8853L12.8058 20.2699L22.9289 14.4345ZM25.5128 14.4345L35.6359 20.2699L31.1146 22.8853L25.5128 19.645V14.4345ZM39.243 20.1228C39.2401 20.1057 39.2354 20.0903 39.2326 20.074C39.226 20.0424 39.2195 20.0107 39.2101 19.9806C39.2044 19.9619 39.196 19.944 39.1894 19.9262C39.1791 19.8985 39.1687 19.8717 39.1565 19.8449C39.1481 19.8262 39.1377 19.8075 39.1274 19.7905C39.1142 19.7645 39.1001 19.7401 39.0832 19.7165C39.072 19.6987 39.0588 19.6816 39.0466 19.6645C39.0297 19.641 39.0118 19.6182 38.9921 19.5963C38.978 19.58 38.963 19.5638 38.9479 19.5484C38.9273 19.5272 38.9056 19.5069 38.8831 19.4874C38.8662 19.4728 38.8502 19.4574 38.8324 19.4444C38.8079 19.4257 38.7835 19.4078 38.7591 19.3907C38.7393 19.3777 38.7205 19.3647 38.7008 19.3525C38.6933 19.3485 38.6867 19.3428 38.6792 19.3387L24.9378 11.4169C24.5037 11.1666 23.939 11.1666 23.504 11.4169L9.76347 19.3387C9.75595 19.3428 9.74937 19.3485 9.74186 19.3525C9.72118 19.3647 9.70239 19.3777 9.6836 19.3907C9.65823 19.4078 9.6338 19.4257 9.61031 19.4444C9.59246 19.4574 9.57555 19.4728 9.55864 19.4874C9.53609 19.5069 9.51448 19.5272 9.49474 19.5484C9.47877 19.5638 9.46374 19.58 9.44964 19.5963C9.43085 19.6182 9.413 19.641 9.39609 19.6645C9.38293 19.6816 9.37072 19.6987 9.3585 19.7165C9.34253 19.7401 9.32844 19.7645 9.31434 19.7905C9.30495 19.8075 9.29461 19.8262 9.28616 19.8449C9.273 19.8717 9.26267 19.8985 9.25233 19.9262C9.24575 19.944 9.23824 19.9619 9.2326 19.9806C9.2232 20.0107 9.21663 20.0424 9.21005 20.074C9.20629 20.0903 9.20159 20.1057 9.19971 20.1228C9.1922 20.1699 9.1875 20.2187 9.1875 20.2682V28.1901C9.1875 28.2389 9.1922 28.2876 9.19971 28.3364C9.20159 28.3518 9.20629 28.368 9.21005 28.3843C9.21663 28.416 9.2232 28.4469 9.2326 28.4777C9.23824 28.4964 9.24575 28.5143 9.25233 28.5322C9.26267 28.559 9.273 28.5866 9.28616 28.6142C9.29461 28.6321 9.30495 28.65 9.31434 28.6679C9.32844 28.693 9.34253 28.7174 9.3585 28.7426C9.37072 28.7597 9.38293 28.7767 9.39609 28.7938C9.413 28.8174 9.43085 28.8393 9.44964 28.8612C9.46374 28.8783 9.47877 28.8945 9.49474 28.91C9.51448 28.9303 9.53609 28.9514 9.55864 28.9701C9.57555 28.9855 9.59246 29.0002 9.61031 29.014C9.6338 29.0327 9.65823 29.0505 9.6836 29.0676C9.70239 29.0806 9.72118 29.0936 9.74186 29.1058C9.74937 29.1099 9.75595 29.1155 9.76347 29.1196L23.504 37.0415C23.721 37.1666 23.9709 37.2292 24.2209 37.2292C24.4708 37.2292 24.7207 37.1666 24.9378 37.0415L38.6792 29.1196C38.6867 29.1155 38.6933 29.1099 38.7008 29.1058C38.7205 29.0936 38.7393 29.0806 38.7591 29.0676C38.7835 29.0505 38.8079 29.0327 38.8324 29.014C38.8502 29.0002 38.8662 28.9855 38.8831 28.9701C38.9056 28.9514 38.9273 28.9303 38.9479 28.91C38.963 28.8945 38.978 28.8783 38.9921 28.8612C39.0118 28.8393 39.0297 28.8174 39.0466 28.7938C39.0588 28.7767 39.072 28.7597 39.0832 28.7426C39.1001 28.7174 39.1142 28.693 39.1274 28.6679C39.1377 28.65 39.1481 28.6321 39.1565 28.6142C39.1687 28.5866 39.1791 28.559 39.1894 28.5322C39.196 28.5143 39.2044 28.4964 39.2101 28.4777C39.2195 28.4469 39.226 28.416 39.2326 28.3843C39.2354 28.368 39.2401 28.3518 39.243 28.3364C39.2505 28.2876 39.2542 28.2389 39.2542 28.1901V20.2682C39.2542 20.2187 39.2505 20.1699 39.243 20.1228Z" fill="white"/>
</g>
<defs>
<clipPath id="clip0_104_2">
<rect width="49" height="49" fill="white"/>
</clipPath>
</defs>
</svg>
