<svg width="375" height="189" viewBox="0 0 375 189" fill="none" xmlns="http://www.w3.org/2000/svg">
<path fill-rule="evenodd" clip-rule="evenodd" d="M81.3349 0.612259C79.3979 0.799259 76.4279 1.22126 74.7349 1.55026C73.0429 1.87926 70.5779 2.26926 69.2579 2.41826C67.9379 2.56726 65.8999 3.02326 64.7289 3.43126C63.5589 3.84026 61.7589 4.28926 60.7289 4.43026C59.6999 4.57026 57.4179 5.11226 55.6579 5.63426C53.8979 6.15526 51.3779 6.84626 50.0579 7.16926C46.9739 7.92426 41.8809 9.69826 41.2159 10.2503C40.9329 10.4853 39.7459 10.9173 38.5799 11.2093C35.9869 11.8603 31.7859 13.5993 29.8739 14.8153C29.0949 15.3103 27.3779 16.1333 26.0579 16.6443C24.7379 17.1543 23.1179 17.9573 22.4579 18.4273C21.7979 18.8973 20.7179 19.4673 20.0579 19.6933C19.3969 19.9193 18.1959 20.5343 17.3879 21.0593C16.5809 21.5853 14.8839 22.6433 13.6169 23.4113C11.1779 24.8903 5.0579 30.7193 5.0579 31.5643C5.0579 31.8393 4.7329 32.4133 4.3359 32.8403C-0.765095 38.3173 -1.5341 51.0543 2.93091 56.0853C7.96891 61.7603 14.7329 60.2623 12.5099 53.9623C11.8079 51.9743 15.1129 45.8833 18.3209 43.2523C19.0559 42.6493 20.5579 41.3423 21.6579 40.3483C22.7579 39.3543 24.1979 38.2623 24.8579 37.9223C25.5179 37.5813 26.5669 36.8783 27.1889 36.3593C27.8109 35.8403 28.5759 35.4153 28.8889 35.4153C29.2019 35.4153 29.4579 35.2253 29.4579 34.9933C29.4579 34.7613 30.4029 34.1303 31.5579 33.5903C32.7129 33.0513 34.7379 31.9923 36.0579 31.2363C37.3779 30.4813 38.9079 29.6493 39.4579 29.3883C42.6759 27.8623 43.8379 27.3613 45.4379 26.8083C46.4169 26.4703 47.4969 25.9483 47.8379 25.6483C48.5929 24.9833 53.9269 22.8363 55.8579 22.4193C56.6279 22.2523 58.1069 21.6893 59.1449 21.1663C60.1819 20.6433 61.3709 20.2153 61.7849 20.2153C62.1999 20.2153 63.3629 19.7773 64.3699 19.2413C65.5509 18.6133 67.6669 18.0543 70.3299 17.6673C72.5999 17.3363 75.8079 16.7993 77.4579 16.4733C79.1079 16.1473 81.6279 15.7043 83.0579 15.4903C84.4879 15.2753 86.4259 14.8113 87.3639 14.4573C88.3029 14.1043 91.2729 13.6263 93.9639 13.3953C96.6559 13.1643 101.648 12.6193 105.058 12.1833C109.468 11.6193 114.956 11.3183 124.067 11.1403C140.048 10.8283 139.602 10.6373 136.658 16.5193C135.778 18.2773 135.058 20.0983 135.058 20.5653C135.058 21.0333 134.906 21.4153 134.721 21.4153C134.536 21.4153 134.041 22.0573 133.621 22.8413C133.201 23.6253 132.273 24.5463 131.558 24.8873C130.53 25.3773 130.258 25.7503 130.258 26.6733C130.258 27.3413 130.002 27.9383 129.658 28.0703C129.328 28.1973 129.058 28.7003 129.058 29.1883C129.058 29.6763 128.608 30.4983 128.058 31.0153C127.508 31.5323 127.058 32.1243 127.058 32.3323C127.058 32.5403 126.563 33.3013 125.958 34.0243C125.353 34.7473 123.868 36.7203 122.658 38.4103C121.448 40.0993 119.811 42.2553 119.02 43.2013C118.228 44.1473 117.152 45.6183 116.627 46.4683C116.103 47.3193 115.37 48.3753 114.999 48.8153C112.897 51.3103 111.508 53.1963 110.292 55.2053C109.541 56.4463 108.641 57.6763 108.291 57.9383C107.942 58.2003 106.891 59.5853 105.955 61.0153C104.231 63.6503 103.667 64.4343 101.843 66.7353C101.285 67.4393 100.121 69.0953 99.2569 70.4153C98.3919 71.7353 97.3389 73.2133 96.9159 73.7003C96.1479 74.5843 95.9619 74.8643 94.4579 77.4063C94.0179 78.1503 93.1179 79.3263 92.4579 80.0203C91.7979 80.7143 90.8079 82.0453 90.2579 82.9773C89.7079 83.9093 88.7179 85.3683 88.0579 86.2193C86.5389 88.1793 85.3579 89.8863 83.7739 92.4153C83.0849 93.5153 82.1319 94.8653 81.6559 95.4153C81.1799 95.9653 80.0129 97.6753 79.0629 99.2153C78.1129 100.755 77.1909 102.073 77.0129 102.143C76.8349 102.213 75.8589 103.653 74.8439 105.343C73.8279 107.033 72.3839 109.225 71.6349 110.215C70.8849 111.205 69.9049 112.69 69.4569 113.515C69.0079 114.34 67.7759 116.32 66.7179 117.915C63.7559 122.381 63.3009 123.124 62.7419 124.403C62.4559 125.057 61.9539 125.888 61.6259 126.25C60.8379 127.121 58.2579 131.416 58.2579 131.858C58.2579 132.162 56.5449 135.778 55.3409 138.015C53.8589 140.77 53.7209 141.384 53.5419 146.034C53.1929 155.093 53.6279 156.614 57.7319 160.685C64.5249 167.425 89.9479 162.48 85.5009 155.284C84.4479 153.58 80.9749 151.571 78.4189 151.188C73.9609 150.52 73.4379 144.161 77.2049 136.415C79.2489 132.212 80.6579 129.069 80.6579 128.711C80.6579 128.506 81.0429 127.996 81.5129 127.577C81.9839 127.158 82.6159 126.275 82.9189 125.615C83.7149 123.882 85.3899 121.067 87.4869 117.942C88.4939 116.442 89.9589 114.225 90.7439 113.015C91.5279 111.805 92.5499 110.472 93.0139 110.053C93.4779 109.634 93.8579 109.135 93.8579 108.943C93.8579 108.412 98.4909 101.845 102.058 97.3223C102.938 96.2063 104.483 94.0713 105.491 92.5773C106.5 91.0833 107.85 89.3383 108.491 88.7003C109.133 88.0623 110.108 86.8713 110.658 86.0533C111.208 85.2363 112.256 83.8133 112.987 82.8913C113.717 81.9693 114.661 80.7653 115.084 80.2153C115.507 79.6653 116.799 78.0463 117.956 76.6173C119.112 75.1883 120.729 73.1183 121.55 72.0173C122.37 70.9163 123.414 69.5653 123.869 69.0153C124.879 67.7953 126.908 65.2253 128.258 63.4553C128.808 62.7343 129.849 61.3953 130.572 60.4793C131.294 59.5643 132.241 58.3653 132.675 57.8153C133.109 57.2653 134.061 56.0953 134.789 55.2153C135.518 54.3353 136.64 52.8953 137.283 52.0153C137.926 51.1353 139.443 49.2213 140.655 47.7613C141.867 46.3013 143.848 43.8803 145.058 42.3793C151.104 34.8843 153.955 31.4313 155.651 29.5503C156.675 28.4143 158.273 26.5243 159.203 25.3503C163.826 19.5093 165.474 18.9323 171.132 21.1673C172.521 21.7153 174.378 22.2823 175.258 22.4273C177.431 22.7833 184.102 25.3463 184.685 26.0483C184.944 26.3603 185.375 26.6153 185.643 26.6153C187.202 26.6153 193.29 30.2843 197.17 33.5613C207.301 42.1213 205.053 54.9013 191.097 68.0863C189.426 69.6653 187.608 71.4033 187.058 71.9483C185.874 73.1223 182.356 75.8153 182.007 75.8153C181.79 75.8153 180.109 77.1213 178.175 78.7923C177.799 79.1163 176.797 79.7363 175.948 80.1693C175.099 80.6023 174.169 81.2403 173.882 81.5863C173.595 81.9323 173.126 82.2153 172.84 82.2153C172.554 82.2153 171.811 82.6353 171.189 83.1493C170.06 84.0813 169.033 84.6663 165.258 86.5273C164.158 87.0703 162.953 87.7803 162.58 88.1063C161.566 88.9933 156.606 91.4153 155.805 91.4153C155.42 91.4153 154.983 91.6123 154.835 91.8533C154.686 92.0943 153.436 92.7973 152.058 93.4153C150.68 94.0333 149.439 94.7233 149.3 94.9463C149.162 95.1703 148.466 95.4783 147.753 95.6303C146.176 95.9673 142.492 97.4333 139.258 99.0103C136.689 100.264 134.411 101.067 130.245 102.19C128.808 102.577 127.188 103.134 126.645 103.428C126.102 103.721 124.578 104.275 123.258 104.659C121.938 105.043 120.048 105.624 119.058 105.95C118.068 106.277 115.818 106.808 114.058 107.131C107.974 108.248 105.187 110.561 107.12 112.889C107.831 113.746 124.777 113.418 129.858 112.449C131.728 112.092 134.464 111.626 135.939 111.412C137.413 111.198 139.393 110.676 140.339 110.252C142.885 109.11 146.865 107.82 150.279 107.031C151.94 106.646 154.332 105.945 155.594 105.473C156.856 105.001 158.199 104.615 158.579 104.615C158.959 104.615 159.942 104.255 160.762 103.815C161.626 103.352 163.019 103.015 164.069 103.015C165.1 103.015 167.217 102.512 168.971 101.85C170.669 101.209 172.508 100.557 173.058 100.401C173.608 100.246 175.768 99.3083 177.858 98.3173C179.948 97.3263 182.558 96.2503 183.658 95.9263C184.758 95.6023 185.928 95.1143 186.258 94.8403C186.837 94.3613 188.581 93.3493 192.903 90.9853L194.947 89.8663L196.303 90.8113C197.048 91.3313 198.389 92.5343 199.281 93.4863C200.174 94.4373 201.839 95.9273 202.981 96.7973C204.124 97.6673 205.058 98.5023 205.058 98.6513C205.058 99.1093 217.159 106.48 218.752 106.993C219.574 107.257 220.338 107.62 220.449 107.8C220.868 108.478 231.653 113.415 232.715 113.415C233.022 113.415 233.919 113.854 234.709 114.391C236.082 115.324 238.244 116.2 243.058 117.774C244.268 118.169 245.975 118.88 246.852 119.354C247.729 119.827 248.677 120.215 248.96 120.215C249.242 120.215 250.485 120.755 251.722 121.415C252.959 122.075 254.193 122.615 254.465 122.615C255.872 122.615 255.754 123.661 254.201 124.964L252.605 126.305L251.706 125.46C250.5 124.327 250.119 124.388 248.842 125.915C248.244 126.63 247.373 127.317 246.906 127.442C246.25 127.618 246.071 127.956 246.116 128.938C246.173 130.161 246.121 130.204 244.645 130.146C243.702 130.109 242.697 130.38 242.027 130.851C241.428 131.271 240.527 131.885 240.024 132.215C239.521 132.545 238.062 133.505 236.783 134.349C235.504 135.192 233.443 136.542 232.203 137.349C226.343 141.158 223.094 143.459 221.258 145.097C220.158 146.079 218.943 147.055 218.558 147.265C218.172 147.475 216.732 148.738 215.358 150.07C213.983 151.403 211.868 153.335 210.658 154.365C209.448 155.395 208.098 156.564 207.658 156.963C207.218 157.363 205.958 158.303 204.858 159.052C203.758 159.802 202.637 160.709 202.367 161.069C202.097 161.429 201.444 161.832 200.915 161.965C200.376 162.1 199.851 162.6 199.719 163.104C199.533 163.815 199.382 163.899 198.991 163.508C198.315 162.832 196.861 162.889 196.258 163.615C195.984 163.945 195.55 164.215 195.293 164.215C195.036 164.215 193.663 165.119 192.242 166.223C190.821 167.327 189.028 168.652 188.258 169.168C187.488 169.683 185.958 171.059 184.858 172.225C183.758 173.391 182.38 174.811 181.796 175.38C177.596 179.472 181.361 185.349 189.501 187.406L192.943 188.276L196.403 187.22C201.033 185.808 201.523 184.846 200.819 178.554C200.584 176.457 200.634 176.257 201.512 175.798C202.032 175.526 203.538 174.368 204.858 173.223C206.178 172.079 208.068 170.629 209.058 170.002C210.048 169.374 211.308 168.475 211.858 168.004C212.408 167.533 214.658 166.097 216.858 164.813C219.058 163.528 221.499 161.98 222.282 161.373C223.065 160.765 224.235 160.14 224.882 159.983C225.529 159.827 226.519 159.377 227.082 158.983C227.646 158.59 228.636 158.143 229.282 157.989C229.929 157.836 230.818 157.393 231.258 157.007C232.084 156.281 236.193 154.471 238.658 153.748C239.428 153.522 240.868 152.911 241.858 152.389C243.678 151.431 245.773 150.61 249.058 149.568C250.048 149.254 252.028 148.616 253.458 148.149C254.888 147.682 257.048 147.074 258.258 146.799C259.468 146.523 261.358 145.931 262.458 145.483C264.356 144.71 268.346 143.805 273.658 142.942C278.464 142.161 278.959 141.926 280.842 139.527C284.863 134.403 285.2 124.087 281.492 119.612C280.703 118.66 279.338 117.329 278.458 116.655C277.578 115.982 276.408 115.004 275.858 114.482C275.308 113.961 273.328 112.77 271.458 111.837C267.755 109.989 266.195 109.184 264.658 108.328C264.108 108.022 263.028 107.5 262.258 107.167C261.488 106.835 257.964 105.135 254.427 103.389C250.891 101.643 247.8 100.215 247.558 100.215C247.317 100.215 246.606 99.7833 245.979 99.2553C245.351 98.7273 243.402 97.5473 241.648 96.6333C239.893 95.7193 237.828 94.5363 237.058 94.0053C233.681 91.6753 232.941 91.1523 231.542 90.1013C230.726 89.4883 229.518 88.5453 228.858 88.0053C228.198 87.4653 226.624 86.1913 225.361 85.1723C218.991 80.0403 218.875 71.9073 225.058 64.0223C227.808 60.5153 233.086 55.3593 235.858 53.4733C236.628 52.9493 237.528 52.2653 237.858 51.9533C238.188 51.6413 239.358 50.8253 240.458 50.1403C241.558 49.4553 243.098 48.4723 243.88 47.9553C244.661 47.4383 245.454 47.0153 245.642 47.0153C245.829 47.0153 246.57 46.5673 247.288 46.0193C248.006 45.4723 250.182 44.1993 252.125 43.1923C254.067 42.1843 255.927 41.1233 256.257 40.8353C256.588 40.5463 257.308 40.1803 257.858 40.0213C258.408 39.8633 259.421 39.4113 260.109 39.0173C260.796 38.6233 261.966 38.1723 262.709 38.0153C263.451 37.8583 264.889 37.3193 265.904 36.8163C266.919 36.3143 268.336 35.7733 269.053 35.6163C269.77 35.4593 270.92 35.0073 271.607 34.6123C272.295 34.2173 273.778 33.7033 274.902 33.4703C276.026 33.2383 277.826 32.7053 278.902 32.2863C279.978 31.8673 281.57 31.3953 282.439 31.2363C283.309 31.0783 284.688 30.6083 285.503 30.1923C286.318 29.7763 287.766 29.3223 288.721 29.1823C289.676 29.0423 292.168 28.5073 294.258 27.9923C296.348 27.4783 299.138 26.9323 300.458 26.7793C301.778 26.6263 303.938 26.0993 305.258 25.6083C306.578 25.1163 308.918 24.5913 310.458 24.4403C311.998 24.2893 314.338 23.9063 315.658 23.5903C323.666 21.6703 345.034 21.8043 347.826 23.7923C349.104 24.7023 349.627 27.4163 348.642 28.0253C348.413 28.1663 347.798 28.9423 347.275 29.7493C346.753 30.5553 345.516 32.0693 344.526 33.1123C343.536 34.1553 342.664 35.1453 342.588 35.3123C342.458 35.5963 338.772 39.1453 331.255 46.2263C329.497 47.8833 327.349 49.7733 326.482 50.4263C325.615 51.0803 324.522 51.9753 324.053 52.4153C323.584 52.8553 322.254 53.9353 321.098 54.8153C319.124 56.3173 317.659 57.5133 316.258 58.7673C315.928 59.0633 315.263 59.5103 314.779 59.7623C314.296 60.0143 313.05 60.9563 312.011 61.8563C310.971 62.7553 309.477 63.9163 308.69 64.4363C307.902 64.9553 306.268 66.1012 305.058 66.9833C303.848 67.8653 301.574 69.3143 300.005 70.2033C298.437 71.0913 296.941 72.0743 296.682 72.3863C296.423 72.6993 294.736 73.6873 292.934 74.5823C286.49 77.7853 283.567 80.4873 285.001 81.9173C285.685 82.5993 292.305 82.4153 293.763 81.6733C294.365 81.3673 296.118 80.8073 297.658 80.4283C299.198 80.0503 300.998 79.4253 301.658 79.0403C302.318 78.6543 303.488 78.1023 304.258 77.8113C305.028 77.5213 305.928 77.0663 306.258 76.8003C306.588 76.5343 307.578 76.0883 308.458 75.8103C309.338 75.5323 310.508 74.9933 311.058 74.6123C311.608 74.2313 312.423 73.8073 312.87 73.6683C313.317 73.5303 314.667 72.7803 315.87 72.0023C317.073 71.2243 318.963 70.1573 320.068 69.6323C321.174 69.1073 322.417 68.3033 322.83 67.8463C323.244 67.3893 323.797 67.0153 324.06 67.0153C324.323 67.0153 325.283 66.4753 326.195 65.8153C327.106 65.1553 328.011 64.6153 328.206 64.6153C328.401 64.6153 329.935 63.5803 331.615 62.3153C335.526 59.3713 337.36 58.2153 338.123 58.2153C338.459 58.2153 338.827 57.8553 338.942 57.4153C339.103 56.7993 339.485 56.6163 340.605 56.6213C342.011 56.6273 342.027 56.6433 341.097 57.1213C338.38 58.5183 339.161 60.0283 342.579 59.9893C344.677 59.9653 347.086 59.1003 349.858 57.3773C353.671 55.0063 355.141 53.8913 359.181 50.3083C363.89 46.1313 368.76 40.6303 371.263 36.6583C374.07 32.2053 374.058 32.2413 374.058 27.8153V23.6153L372.342 20.5373C369.509 15.4543 368.104 14.6523 366.861 17.4073L366.126 19.0383L364.985 17.9453C364.255 17.2463 363.552 15.8753 363.038 14.1493C362.596 12.6633 362.039 11.3273 361.801 11.1803C361.563 11.0333 360.951 9.99126 360.442 8.86426C357.072 1.41826 351.603 -1.49574 345.173 0.728264C343.858 1.18326 342.072 1.26626 337.033 1.10526L330.578 0.899262L331.667 1.98826C333.202 3.52226 332.698 3.78126 327.224 4.26726C324.603 4.50026 321.366 5.03426 320.031 5.45326C318.696 5.87226 315.636 6.41226 313.231 6.65326C310.826 6.89426 308.264 7.33926 307.538 7.64126C306.812 7.94426 304.883 8.46726 303.251 8.80426C301.618 9.14126 299.412 9.76026 298.347 10.1803C297.282 10.6003 295.522 11.0643 294.434 11.2123C293.347 11.3603 291.468 11.8103 290.258 12.2113C289.048 12.6123 287.158 13.0713 286.058 13.2303C284.958 13.3903 283.338 13.8853 282.458 14.3303C281.578 14.7763 279.598 15.3983 278.058 15.7133C276.518 16.0283 274.628 16.4353 273.858 16.6163C273.088 16.7973 270.699 17.3033 268.549 17.7403C266.399 18.1773 264.239 18.7953 263.749 19.1143C263.259 19.4333 262.15 19.9263 261.285 20.2093C260.42 20.4933 258.907 21.2363 257.924 21.8593C256.94 22.4833 255.488 23.2063 254.697 23.4653C253.905 23.7253 253.023 24.2703 252.735 24.6763C252.448 25.0833 251.764 25.4153 251.215 25.4153C250.025 25.4153 247.858 26.4673 247.858 27.0463C247.858 27.2713 247.183 27.7383 246.358 28.0823C245.533 28.4273 244.27 29.2253 243.551 29.8563C242.832 30.4873 241.797 31.1163 241.251 31.2533C240.705 31.3903 240.258 31.6713 240.258 31.8783C240.258 32.0853 239.581 32.5603 238.754 32.9353C237.927 33.3093 236.442 34.1243 235.454 34.7463C234.466 35.3693 232.55 36.5783 231.195 37.4343C229.84 38.2893 228.023 39.3593 227.157 39.8103C226.291 40.2623 225.163 41.0773 224.651 41.6233C224.138 42.1693 223.525 42.6183 223.288 42.6213C222.833 42.6283 220.63 44.1173 216.961 46.8973C213.505 49.5153 211.108 49.5443 212.807 46.9473C214.591 44.2233 214.524 32.8333 212.713 30.8513C212.293 30.3913 211.814 29.5653 211.648 29.0153C211.246 27.6843 210.041 26.1073 207.878 24.0823C206.899 23.1653 205.729 22.0413 205.278 21.5843C204.827 21.1273 203.873 20.4143 203.158 19.9983C202.443 19.5833 201.858 19.1243 201.858 18.9783C201.858 18.7363 195.342 15.4153 194.866 15.4153C194.752 15.4153 194.307 15.0643 193.879 14.6363C193.451 14.2083 192.326 13.6593 191.379 13.4173C190.432 13.1753 188.848 12.6443 187.858 12.2383C186.868 11.8323 185.248 11.3713 184.258 11.2133C183.268 11.0553 181.72 10.5943 180.818 10.1883C179.916 9.78226 178.026 9.26126 176.618 9.03226C175.21 8.80226 173.068 8.34426 171.858 8.01326C170.648 7.68326 166.868 7.23026 163.458 7.00626C155.624 6.49226 154.925 6.37326 154.051 5.40726C153.657 4.97126 153.127 4.61526 152.874 4.61526C152.621 4.61526 151.816 4.17426 151.086 3.63626C150.357 3.09726 149.223 2.53926 148.567 2.39526C147.911 2.25126 146.578 1.78126 145.603 1.35026C142.769 0.096258 141.236 0.443262 141.346 2.31526C141.449 4.06826 140.225 4.33226 137.103 3.23126C136.193 2.91026 133.335 2.45826 130.753 2.22726C128.171 1.99626 123.628 1.52826 120.658 1.18526C114.405 0.465257 87.0079 0.0662591 81.3349 0.612259Z" fill="#87A6F4"/>
</svg>
