<svg width="48" height="49" viewBox="0 0 48 49" fill="none" xmlns="http://www.w3.org/2000/svg">
<path fill-rule="evenodd" clip-rule="evenodd" d="M24 49C37.2548 49 48 38.0309 48 24.5C48 10.9691 37.2548 0 24 0C10.7452 0 0 10.9691 0 24.5C0 38.0309 10.7452 49 24 49Z" fill="black"/>
<path d="M24.5 39C35.2695 39 44 30.9411 44 21C44 11.0589 35.2695 3 24.5 3C13.7305 3 5 11.0589 5 21C5 30.9411 13.7305 39 24.5 39Z" fill="white"/>
<path fill-rule="evenodd" clip-rule="evenodd" d="M24.4988 3C13.7311 3 5 11.0938 5 21.0803C5 29.0668 10.5867 35.8431 18.3368 38.2341C19.3118 38.4002 19.6677 37.842 19.6677 37.3629C19.6677 36.9335 19.6506 35.7968 19.6408 34.2883C14.2162 35.381 13.0718 31.8646 13.0718 31.8646C12.1857 29.7764 10.9073 29.2205 10.9073 29.2205C9.13644 28.0985 11.0413 28.121 11.0413 28.121C12.9974 28.2487 14.0273 29.9844 14.0273 29.9844C15.7677 32.7471 18.5915 31.9493 19.703 31.4861C19.8797 30.3177 20.3843 29.5211 20.9413 29.0691C16.611 28.6126 12.059 27.0623 12.059 20.1345C12.059 18.1606 12.8183 16.5469 14.0663 15.2825C13.8652 14.8249 13.1961 12.9876 14.2564 10.4984C14.2564 10.4984 15.8944 10.0125 19.6189 12.3515C21.1753 11.9503 22.8425 11.7504 24.5012 11.7424C26.1575 11.7504 27.826 11.9503 29.3835 12.3515C33.1056 10.0125 34.7399 10.4984 34.7399 10.4984C35.8039 12.9876 35.1348 14.8249 34.9337 15.2825C36.1842 16.5469 36.9386 18.1606 36.9386 20.1345C36.9386 27.0792 32.3792 28.608 28.0356 29.0556C28.7352 29.6137 29.3592 30.7165 29.3592 32.4036C29.3592 34.8205 29.3348 36.7697 29.3348 37.3629C29.3348 37.8465 29.6858 38.4092 30.6754 38.2318C38.4181 35.8363 44 29.0646 44 21.0803C44 11.0938 35.2689 3 24.4988 3Z" fill="black"/>
</svg>
