<svg width="16" height="16" viewBox="0 0 16 16" fill="none" xmlns="http://www.w3.org/2000/svg">
<path d="M0.0171298 15.9999H3.21133V4.57427H0.0171298V15.9999ZM12.4613 4.17855C10.9111 4.17855 9.52403 4.78609 8.54004 6.12705V4.53674H5.33412V16H8.54004V9.80094C8.54004 8.49088 9.65851 7.21286 11.0594 7.21286C12.4603 7.21286 12.8057 8.49088 12.8057 9.76891V15.9989H16V9.51376C15.9999 5.00913 14.0126 4.17855 12.4613 4.17855ZM1.5993 3.43248C2.48208 3.43248 3.19861 2.6636 3.19861 1.71616C3.19861 0.768799 2.48208 0 1.5993 0C0.716527 0 0 0.768951 0 1.71632C0 2.66368 0.716527 3.43248 1.5993 3.43248Z" fill="white"/>
</svg>
