<svg width="49" height="49" viewBox="0 0 49 49" fill="none" xmlns="http://www.w3.org/2000/svg">
<path d="M24.4999 0C38.0317 0 49 10.9699 49 24.5001C49 38.0303 38.0317 49 24.4999 49C10.9681 49 0 38.0301 0 24.5001C0 10.9701 10.9683 0 24.4999 0Z" fill="black"/>
<path d="M11.031 37.9999H16.8205V18.0049H11.031V37.9999ZM33.5861 17.3124C30.7763 17.3124 28.2623 18.3756 26.4788 20.7223V17.9393H20.6681V38H26.4788V27.1517C26.4788 24.859 28.506 22.6225 31.0451 22.6225C33.5842 22.6225 34.2104 24.859 34.2104 27.0956V37.9979H40V26.649C39.9997 18.766 36.3978 17.3124 33.5861 17.3124ZM13.8988 16.0068C15.4988 16.0068 16.7975 14.6612 16.7975 13.0032C16.7975 11.3454 15.4988 10 13.8988 10C12.2987 10 11 11.3457 11 13.0035C11 14.6614 12.2987 16.0068 13.8988 16.0068Z" fill="white"/>
</svg>
