<svg width="18" height="14" viewBox="0 0 18 14" fill="none" xmlns="http://www.w3.org/2000/svg">
<path d="M2.13446 2.85595C2.15679 2.63948 2.07253 2.42555 1.90755 2.27985L0.22689 0.296315V0H5.44539L9.47897 8.66665L13.0252 0H18V0.296315L16.563 1.64608C16.4391 1.73858 16.3777 1.89065 16.4033 2.04115V11.9589C16.3777 12.1094 16.4391 12.2614 16.563 12.3539L17.9664 13.7037V14H10.9075V13.7037L12.3613 12.321C12.5042 12.1811 12.5042 12.1399 12.5042 11.9259V3.90945L8.46219 13.9671H7.91595L3.21008 3.90945V10.6502C3.17087 10.9336 3.26694 11.2189 3.47057 11.4239L5.36136 13.6708V13.9671H0V13.6708L1.89073 11.4239C2.09295 11.2186 2.1834 10.9314 2.13446 10.6502V2.85595Z" fill="white"/>
</svg>
