<svg width="48" height="49" viewBox="0 0 48 49" fill="none" xmlns="http://www.w3.org/2000/svg">
<path fill-rule="evenodd" clip-rule="evenodd" d="M24 49C37.2548 49 48 38.0309 48 24.5C48 10.9691 37.2548 0 24 0C10.7452 0 0 10.9691 0 24.5C0 38.0309 10.7452 49 24 49Z" fill="black"/>
<path d="M11.7946 16.6436C11.8343 16.2332 11.6845 15.8276 11.3912 15.5514L8.40336 11.7909V11.2292H17.6807L24.8515 27.6597L31.1559 11.2292H40V11.7909L37.4454 14.3499C37.2251 14.5252 37.1159 14.8135 37.1615 15.0988V33.9012C37.1159 34.1865 37.2251 34.4748 37.4454 34.6501L39.9402 37.2091V37.7708H27.3912V37.2091L29.9757 34.5877C30.2297 34.3225 30.2297 34.2445 30.2297 33.8387V18.6408L23.0439 37.7085H22.0728L13.7068 18.6408V31.4202C13.6371 31.9575 13.8079 32.4983 14.1699 32.887L17.5313 37.1467V37.7085H8V37.1467L11.3613 32.887C11.7208 32.4977 11.8816 31.9532 11.7946 31.4202V16.6436Z" fill="white"/>
</svg>
